# xmcd
#
# Track frame offsets: 
#        150
#        24422
#        41337
#        59140
#        76210
#        96627
#        110635
#        128367
#        149047
#        160247
#        179605
#        196162
#
# Disc length: 2855 seconds
#
# Revision: 4
# Processed by: cddbd v1.5.2PL0 Copyright (c) Steve Scherf et al.
# Submitted via: ExactAudioCopyFreeDBPlugin 1.0
#
DISCID=a90b250c
DTITLE=Michelle Willson and the Evil Gal Orchestra - Wake Up Call
DYEAR=2001
DGENRE=
TTITLE0=Wake Up Call
TTITLE1=Barking Up The Wrong Tree
TTITLE2=They Don't Want Me To Rock No More
TTITLE3=Leap of Faith
TTITLE4=Think About Me
TTITLE5=Pleasing You
TTITLE6=The Way You Say Goodbye
TTITLE7=Set You Free
TTITLE8=Water Water
TTITLE9=Crazy Crazy
TTITLE10=Mi My Moo
TTITLE11=People Say
EXTD=
EXTT0=
EXTT1=
EXTT2=
EXTT3=
EXTT4=
EXTT5=
EXTT6=
EXTT7=
EXTT8=
EXTT9=
EXTT10=
EXTT11=
PLAYORDER=
